. 
  
http://www.torrentday.com/        :     The Hottest Private Tracker On The Net!!!


To Avoid Fakes, ALWAYS Check That The Torrent Was Added By: TvTeam.


               www . TorrentDay . Com 
(((((((((((((= Enjoy No RAR releases =))))))))))))))))))))

...................................NFO:....................................

.DVD Screener Sourced


General
Complete name : Dexter.S06E01.m4v
Format : MPEG-4
Format profile : Base Media / Version 2
Codec ID : mp42
File size : 502 MiB
Duration : 53mn 48s
Overall bit rate : 1 305 Kbps
Encoded date : UTC 2011-09-23 03:47:35
Tagged date : UTC 2011-09-23 03:59:32
Writing application : HandBrake 0.9.5 2011010300

Video
ID : 1
Format : AVC
Format/Info : Advanced Video Codec
Format profile : Main@L3.0
Format settings, CABAC : Yes
Format settings, ReFrames : 4 frames
Format settings, GOP : M=3, N=16
Codec ID : avc1
Codec ID/Info : Advanced Video Coding
Duration : 53mn 48s
Bit rate mode : Variable
Bit rate : 1 139 Kbps
Width : 720 pixels
Height : 480 pixels
Display aspect ratio : 16:9
Original display aspect ratio : 16:9
Frame rate mode : Variable
Frame rate : 23.976 fps
Minimum frame rate : 19.965 fps
Maximum frame rate : 29.970 fps
Standard : NTSC
Color space : YUV
Chroma subsampling : 4:2:0
Bit depth : 8 bits
Scan type : Progressive
Bits/(Pixel*Frame) : 0.137
Stream size : 438 MiB (87%)
Writing library : x264 core 112
Encoding settings : cabac=1 / ref=2 / deblock=1:0:0 / analyse=0x1:0x111 / me=hex / subme=6 / psy=1 / psy_rd=1.00:0.00 / mixed_ref=0 / me_range=16 / chroma_me=1 / trellis=0 / 8x8dct=0 / cqm=0 / deadzone=21,11 / fast_pskip=1 / chroma_qp_offset=-2 / threads=12 / sliced_threads=0 / nr=0 / decimate=1 / interlaced=0 / constrained_intra=0 / bframes=2 / b_pyramid=2 / b_adapt=1 / b_bias=0 / direct=1 / weightb=0 / open_gop=0 / weightp=2 / keyint=240 / keyint_min=23 / scenecut=40 / intra_refresh=0 / rc_lookahead=40 / rc=crf / mbtree=1 / crf=20.0 / qcomp=0.60 / qpmin=3 / qpmax=51 / qpstep=4 / ip_ratio=1.40 / aq=1:1.00
Encoded date : UTC 2011-09-23 03:47:35
Tagged date : UTC 2011-09-23 03:59:32
Color primaries : BT.601-6 525, BT.1358 525, BT.1700 NTSC, SMPTE 170M
Transfer characteristics : BT.709-5, BT.1361
Matrix coefficients : BT.601-6 525, BT.1358 525, BT.1700 NTSC, SMPTE 170M

Audio
ID : 2
Format : AAC
Format/Info : Advanced Audio Codec
Format profile : LC
Codec ID : 40
Duration : 53mn 47s
Bit rate mode : Variable
Bit rate : 160 Kbps
Maximum bit rate : 364 Kbps
Channel(s) : 2 channels
Channel positions : Front: L R
Sampling rate : 48.0 KHz
Compression mode : Lossy
Stream size : 61.6 MiB (12%)
Language : English
Encoded date : UTC 2011-09-23 03:47:35
Tagged date : UTC 2011-09-23 03:59:32

Text
ID : 3
Format : Apple text
Codec ID : text
Duration : 53mn 47s
Bit rate mode : Constant
Bit rate : 0
Stream size : 161 Bytes (0%)
Encoded date : UTC 2011-09-23 03:47:35
Tagged date : UTC 2011-09-23 03:59:32